<?xml version="1.0" standalone="no"?><!DOCTYPE svg PUBLIC "-//W3C//DTD SVG 1.1//EN" "http://www.w3.org/Graphics/SVG/1.1/DTD/svg11.dtd"><svg t="1710764899366" class="icon" viewBox="0 0 1024 1024" version="1.1" xmlns="http://www.w3.org/2000/svg" p-id="4249" xmlns:xlink="http://www.w3.org/1999/xlink" width="200" height="200"><path d="M256.049297 422.155979v312.580782h511.580975V422.155979z m34.594262 140.11477c-1.737724-7.320624 1.367995-21.074523 6.568842-23.810514 33.854805-17.35259 68.818795-32.363566 103.413056-48.064703 1.478914-0.628538 3.216638-0.492971 9.292509-1.367995 3.475448 3.475448 12.398228 8.306567 13.396496 14.259195 1.109185 7.061814-2.600424 19.3368-8.060081 22.07279-32.856538 16.859619-66.551127 32.043135-100.43058 46.99249-10.290776 4.54766-21.579819 1.072213-24.180242-10.081263z m345.93029 61.128442c-1.232428 31.611785-13.642981 57.283266-42.900828 71.48084-27.273638 13.137685-52.821876 7.554785-75.178124-12.780281-1.232428-0.8627-2.600424-1.614481-4.091662-2.723667-6.815328 4.843443-13.137685 10.290776-20.335066 14.135952-23.674947 12.521471-47.238976 11.412286-69.015983-3.845176-24.057-16.859619-34.717504-41.532833-32.610052-70.248411 0.492971-6.162141 11.905257-16.021567 18.486424-16.243405s14.628924 8.626998 19.336799 15.491624c3.697285 5.459657 2.107452 14.135952 4.707876 20.704795 4.929713 12.521471 14.135952 24.439053 27.902176 21.456576 10.167533-2.107452 19.349124-12.398228 26.903909-20.828038 3.697285-4.214905 3.105719-12.521471 4.091662-18.967071 1.737724-12.324283 8.799538-19.718852 20.828038-19.472367 10.919314 0.246486 17.981128 6.938571 19.472367 18.843829 0.8627 7.56711 1.109185 16.995186 5.5829 21.949547 7.185057 8.060081 17.35259 17.722319 26.657423 18.104371 8.306567 0.246486 18.486424-9.859426 25.042942-17.857885 4.338148-5.200847 4.091662-14.505681 5.459658-22.072791 2.230695-12.0285 9.046023-19.3368 21.444252-18.486424s18.708261 8.824186 18.215289 21.357982z m67.081071-41.40959c-37.823224-21.579819-75.017909-44.268823-112.089351-67.08107-9.859426-6.075871-11.905257-16.021567-6.162141-26.04121 5.829386-10.290776 16.120162-13.014443 25.659156-7.567109q57.29559 33.103023 113.58059 67.956095c4.338148 2.846909 6.4456 9.415752 8.06008 11.76969 0.332756 18.73291-14.912382 29.011361-29.048334 20.963604z" p-id="4250"></path><path d="M856.389755 0H167.610245C75.42461 0 0 75.42461 0 167.610245v688.77951c0 92.185635 75.42461 167.610245 167.610245 167.610245h688.77951c92.185635 0 167.610245-75.42461 167.610245-167.610245V167.610245c0-92.185635-75.449259-167.610245-167.610245-167.610245z m-4.079337 843.227422c-6.075871 0-12.324283 0.616214-18.227614-0.123243-22.060466-2.464857-38.205276-0.369728-45.87098 26.903909-6.950895 24.549971-33.103023 37.071442-56.691701 34.594261-27.273638-2.859234-45.254766-18.967071-52.193337-44.367417-4.214905-15.368381-11.412286-17.475833-25.301752-17.35259-95.833622 0.616214-191.556326 0.369728-287.402273 0.123242-11.030233 0-17.475833 0.985943-20.704795 14.382438-6.950895 28.764876-30.625842 46.99249-56.790294 47.485462-27.113422 0.492971-50.702099-17.253996-58.638937-47.115733-3.352205-12.521471-8.935105-15.368381-20.458309-14.789139-14.887733 0.8627-29.886386 0.369728-44.885038 0.123242-16.366647-0.369728-23.564028-7.074138-23.564028-23.058732q0.184864-243.651069 0.739456-487.523975c0-16.859619 6.827653-22.442519 25.548238-22.442519q115.503177-0.184864 230.870788 0h16.169459c0.492971-1.367995 0.985943-2.723666 1.478914-4.214905q-26.768342-14.505681-53.561333-29.146928l-88.895051-48.348161c-12.0285-6.568843-16.982862-16.613133-10.167533-29.011362s18.227614-13.396495 29.997304-6.950895c69.447333 37.823224 138.99326 75.51088 208.280378 113.827075 17.734643 9.797805 49.716156 3.968419 61.005199-12.644714q53.17928-77.199307 106.136722-154.497208c1.232428-1.848642 2.464857-3.697285 3.697285-5.459657 10.056615-14.000385 21.579819-17.722319 32.043135-9.538995 12.0285 9.538995 10.04429 20.828038 2.230695 32.240324-14.382438 20.951281-28.764876 42.025804-43.02407 62.989408-19.866744 29.146929-39.708839 58.281533-61.892548 90.6451h249.825534c23.317543 0 26.903909 3.697285 27.027152 27.027152q0.369728 239.731947 0.628539 479.34065c0 22.812247-4.091662 26.780666-27.409205 26.90391z m-671.27903-37.564414h660.988254V346.410938H181.031388z m35.962257-394.90699c0-23.416137 4.843443-28.271904 28.148662-28.271905h533.148469c23.674947 0 28.51839 4.7202 28.641633 27.902176q0.554593 167.610245 0.739457 335.010977c0 23.933757-4.929713 28.51839-29.578278 28.641633H246.38706c-25.794724 0-29.886386-4.091662-29.886386-29.874062q0.184864-166.575005 0.492971-333.408819z m520.503755 456.528403c12.324283-0.875024 17.981128-10.414019 21.703062-23.071057h-46.12979c4.596957 13.889467 10.783747 24.057 24.426728 23.071057z m-450.452532 0c13.556711 0.985943 19.965338-9.058348 23.933757-22.93549h-45.501252c3.093395 13.002118 9.415752 22.183709 21.567495 22.93549z" p-id="4251"></path></svg>